# xmcd CD database file
#
# Track frame offsets:
#	150
#	29743
#	43845
#	71251
#	99619
#	128555
#	156038
#	184540
#
# Disc length: 2857 seconds
#
# Revision: 0
# Processed by: cddbd v1.5.1PL0 Copyright (c) Steve Scherf et al.
# Submitted via: CDex 1.51
#
DISCID=640b2708
DTITLE=Merrel,Briggs,Lynn/Taylor - An Ambient Voyage To The Orient
DYEAR=2003
DGENRE=New Age
TTITLE0=Light Of The Morning
TTITLE1=Passage To China
TTITLE2=Xi'an
TTITLE3=Shiono-Misaki
TTITLE4=TianJing
TTITLE5=Sichuan Red
TTITLE6=The Water Margin
TTITLE7=Yangste Moon
EXTD=YEAR: 2003
EXTT0=
EXTT1=
EXTT2=
EXTT3=
EXTT4=
EXTT5=
EXTT6=
EXTT7=
PLAYORDER=
